<svg xmlns="http://www.w3.org/2000/svg" viewBox="0 0 13.71 22.68"><g id="Слой_2" data-name="Слой 2"><g id="Слой_1-2" data-name="Слой 1"><path d="M11.34,22.18A1.84,1.84,0,0,1,10,21.63l-9-9a1.88,1.88,0,0,1,0-2.66l9-9A1.88,1.88,0,0,1,11.34.5a1.88,1.88,0,0,1,1.32,3.2L5,11.34,12.66,19a1.88,1.88,0,0,1-1.32,3.2Z"/><path d="M11.34,1a1.38,1.38,0,0,1,1,2.35L5,10.63l-.71.71.71.71,7.28,7.28a1.38,1.38,0,0,1-2,2l-9-9a1.4,1.4,0,0,1,0-2l9-9a1.38,1.38,0,0,1,1-.4m0-1A2.34,2.34,0,0,0,9.66.7l-9,9A2.37,2.37,0,0,0,.7,13l9,9a2.34,2.34,0,0,0,1.68.7A2.37,2.37,0,0,0,13,22h0a2.39,2.39,0,0,0,0-3.36L5.73,11.34,13,4.06A2.39,2.39,0,0,0,13,.7h0A2.37,2.37,0,0,0,11.34,0Z"/></g></g></svg>